<svg width="1462" height="920" viewBox="0 0 1462 920" fill="none" xmlns="http://www.w3.org/2000/svg">
<path d="M96.4285 273.743L180.982 392.209L133.66 425.984L49.1067 307.517L96.4285 273.743ZM40.2391 313.847L49.1058 326.27C59.6893 341.098 64.3165 353.241 62.7472 362.636C61.462 370.33 55.9006 377.619 46.2266 384.524L36.1381 391.724L0.697455 342.069L40.2391 313.847ZM144.579 239.376L180.019 289.032L169.931 296.232C163.578 300.767 158.367 303.487 154.318 304.322L154.31 304.324C150.29 305.087 146.778 305.253 143.784 304.805L143.768 304.802C140.792 304.253 137.69 303.007 134.467 301.082L134.465 301.08C127.93 297.109 121.078 290.074 113.904 280.021L105.037 267.598L144.579 239.376Z" stroke="#FFFCFC"/>
<path d="M430.839 35.0638L515.392 153.531L468.07 187.306L383.517 68.8388L430.839 35.0638ZM374.649 75.1678L383.516 87.5909C394.099 102.419 398.727 114.563 397.157 123.958C395.872 131.651 390.311 138.94 380.637 145.845L370.548 153.045L335.108 103.39L374.649 75.1678ZM478.989 0.697719L514.429 50.3533L504.341 57.5538C497.988 62.0879 492.777 64.808 488.728 65.6433L488.72 65.6455C484.7 66.4081 481.188 66.5742 478.195 66.1261L478.178 66.1234C475.202 65.5742 472.1 64.3284 468.877 62.4029L468.875 62.4011C462.34 58.4304 455.488 51.395 448.314 41.3428L439.447 28.9197L478.989 0.697719Z" stroke="#FFFCFC"/>
<path d="M220.491 184.891L305.188 303.559L257.786 337.391L173.09 218.723L220.491 184.891ZM238.838 171.535C254.115 160.631 267.518 155.428 279.021 156.06L279.022 156.061C291.106 156.736 301.708 163.534 310.831 176.316C317.094 185.092 320.392 193.769 320.675 202.339C320.946 210.534 318.458 218.586 313.249 226.488C323.34 224.003 332.854 224.562 341.773 228.183L342.671 228.558L342.675 228.561C351.053 232.274 358.27 238.387 364.33 246.878L371.172 256.464L331.401 284.85L320.853 270.071L308.538 278.861L308.248 278.456L234.219 175.448L233.926 175.041L238.838 171.535Z" stroke="#FFFCFC"/>
<path d="M1035.25 732.742L1119.81 851.209L1072.48 884.984L987.931 766.517L1035.25 732.742ZM979.064 772.846L987.93 785.269C998.514 800.098 1003.14 812.241 1001.57 821.636C1000.29 829.33 994.725 836.619 985.051 843.523L974.963 850.724L939.522 801.068L979.064 772.846ZM1083.4 698.376L1118.84 748.032L1108.76 755.232C1102.4 759.766 1097.19 762.486 1093.14 763.322L1093.13 763.324C1089.11 764.087 1085.6 764.253 1082.61 763.805L1082.59 763.802C1079.62 763.253 1076.51 762.007 1073.29 760.081L1073.29 760.08C1066.75 756.109 1059.9 749.073 1052.73 739.021L1043.86 726.598L1083.4 698.376Z" stroke="#FFFCFC"/>
<path d="M1369.66 494.064L1454.22 612.53L1406.89 646.305L1322.34 527.839L1369.66 494.064ZM1313.47 534.168L1322.34 546.591C1332.92 561.419 1337.55 573.562 1335.98 582.957C1334.7 590.651 1329.14 597.94 1319.46 604.845L1309.37 612.045L1273.93 562.39L1313.47 534.168ZM1417.81 459.697L1453.25 509.353L1443.17 516.554C1436.81 521.088 1431.6 523.808 1427.55 524.643L1427.55 524.645C1423.53 525.408 1420.01 525.574 1417.02 525.126L1417 525.123C1414.03 524.574 1410.93 523.328 1407.7 521.403L1407.7 521.401C1401.16 517.43 1394.31 510.395 1387.14 500.343L1378.27 487.919L1417.81 459.697Z" stroke="#FFFCFC"/>
<path d="M1159.32 643.891L1244.01 762.559L1196.61 796.391L1111.91 677.723L1159.32 643.891ZM1177.66 630.535C1192.94 619.631 1206.34 614.428 1217.85 615.06L1217.85 615.061C1229.93 615.736 1240.53 622.533 1249.66 635.316C1255.92 644.092 1259.22 652.768 1259.5 661.339C1259.77 669.534 1257.28 677.586 1252.07 685.488C1262.17 683.003 1271.68 683.562 1280.6 687.183L1281.5 687.558L1281.5 687.561C1289.88 691.274 1297.1 697.387 1303.16 705.878L1310 715.464L1270.23 743.85L1259.68 729.071L1247.36 737.86L1247.07 737.455L1173.04 634.448L1172.75 634.04L1177.66 630.535Z" stroke="#FFFCFC"/>
</svg>
