<svg width="97" height="96" viewBox="0 0 97 96" fill="none" xmlns="http://www.w3.org/2000/svg">
<path d="M0.0546875 4C0.0546875 1.79086 1.84555 0 4.05469 0H92.0547C94.2638 0 96.0547 1.79086 96.0547 4V92C96.0547 94.2091 94.2638 96 92.0547 96H4.05469C1.84555 96 0.0546875 94.2091 0.0546875 92V4Z" fill="#004FD4"/>
<path d="M21.2168 72.0762H29.0918V82.0078H27.123C25.834 82.0078 24.8848 81.873 24.2754 81.6035C23.666 81.3223 23.1855 81.0117 22.834 80.6719C22.4941 80.3203 22.2012 79.8633 21.9551 79.3008C21.4629 78.1523 21.2168 76.5586 21.2168 74.5195V72.0762ZM9.84375 72.0762H19.3008V96H9.84375V72.0762ZM0 72.0762H7.875V74.5195C7.875 77.5312 7.33008 79.582 6.24023 80.6719C5.34961 81.5625 3.92578 82.0078 1.96875 82.0078H0V72.0762Z" fill="white"/>
<path d="M88.1875 72.0762H96.0625V82.0078H94.0938C92.8047 82.0078 91.8555 81.873 91.2461 81.6035C90.6367 81.3223 90.1562 81.0117 89.8047 80.6719C89.4648 80.3203 89.1719 79.8633 88.9258 79.3008C88.4336 78.1523 88.1875 76.5586 88.1875 74.5195V72.0762ZM76.8145 72.0762H86.2715V96H76.8145V72.0762ZM66.9707 72.0762H74.8457V74.5195C74.8457 77.5312 74.3008 79.582 73.2109 80.6719C72.3203 81.5625 70.8965 82.0078 68.9395 82.0078H66.9707V72.0762Z" fill="white"/>
<path d="M59.6301 79.4835C59.6301 83.0286 58.0731 85.3588 54.9593 86.474C56.7049 87.1196 58.0201 88.1702 58.9047 89.6258C59.6714 90.9171 60.0547 92.4197 60.0547 94.1335V96H56.3265H54.4624H52.0951V92.9949H49.5789L49.5101 72H50.4301C53.5439 72 55.838 72.5869 57.3124 73.7608C58.8575 74.9934 59.6301 76.901 59.6301 79.4835ZM37.0547 72.0352H46.5731V96H37.0547V72.0352Z" fill="white"/>
</svg>
